<svg xmlns="http://www.w3.org/2000/svg" viewBox="0 0 1200 900" role="img" aria-labelledby="title desc">
  <title id="title">Pink Cloud Digital Gift</title>
  <desc id="desc">A cute pink digital gift card with clouds, sparkles, and ribbons.</desc>
  <defs>
    <linearGradient id="bg" x1="0" x2="1" y1="0" y2="1">
      <stop stop-color="#fff5f8"/>
      <stop offset="0.45" stop-color="#ffd9e8"/>
      <stop offset="1" stop-color="#fff7cf"/>
    </linearGradient>
    <linearGradient id="card" x1="0" x2="1">
      <stop stop-color="#ffffff"/>
      <stop offset="1" stop-color="#ffe3ec"/>
    </linearGradient>
    <filter id="shadow" x="-20%" y="-20%" width="140%" height="140%">
      <feDropShadow dx="0" dy="24" stdDeviation="26" flood-color="#d93672" flood-opacity="0.22"/>
    </filter>
  </defs>
  <rect width="1200" height="900" fill="url(#bg)"/>
  <circle cx="145" cy="130" r="86" fill="#9ee6cf" opacity="0.45"/>
  <circle cx="1030" cy="160" r="118" fill="#ffe890" opacity="0.62"/>
  <circle cx="990" cy="720" r="160" fill="#ffffff" opacity="0.45"/>
  <g filter="url(#shadow)">
    <rect x="210" y="205" width="780" height="500" rx="34" fill="url(#card)"/>
    <path d="M210 325h780" stroke="#d93672" stroke-width="18" opacity="0.24"/>
    <path d="M600 205v500" stroke="#d93672" stroke-width="18" opacity="0.24"/>
    <path d="M590 205c-48-88-146-68-141 8 4 62 84 84 151 84 72 0 151-23 154-84 4-76-96-96-144-8" fill="none" stroke="#a91f52" stroke-width="24" stroke-linecap="round"/>
  </g>
  <g fill="#ffffff" opacity="0.9">
    <ellipse cx="330" cy="672" rx="92" ry="48"/>
    <ellipse cx="410" cy="662" rx="72" ry="62"/>
    <ellipse cx="486" cy="681" rx="104" ry="42"/>
    <ellipse cx="804" cy="272" rx="86" ry="42"/>
    <ellipse cx="878" cy="260" rx="62" ry="54"/>
    <ellipse cx="944" cy="280" rx="96" ry="38"/>
  </g>
  <g fill="#a91f52" font-family="Georgia, serif" text-anchor="middle">
    <text x="600" y="445" font-size="88" font-weight="700">Pink Cloud</text>
    <text x="600" y="525" font-size="44" font-family="Verdana, sans-serif" font-weight="700">DIGITAL GIFT</text>
  </g>
  <g fill="#d93672">
    <path d="M138 282l18 36 40 6-29 28 7 40-36-19-35 19 7-40-29-28 40-6z"/>
    <path d="M1044 518l13 27 30 4-22 21 5 30-26-14-27 14 5-30-21-21 30-4z"/>
    <circle cx="174" cy="604" r="12"/>
    <circle cx="1010" cy="376" r="10"/>
    <circle cx="742" cy="138" r="8"/>
  </g>
</svg>
